<mxfile host="app.diagrams.net" agent="Mozilla/5.0 (Windows NT 10.0; Win64; x64) AppleWebKit/537.36 (KHTML, like Gecko) Chrome/131.0.0.0 Safari/537.36" version="26.0.4">
  <diagram name="Page-1" id="efEk8cpPjp5dOjyDoGnm">
    <mxGraphModel dx="2097" dy="1115" grid="1" gridSize="10" guides="1" tooltips="1" connect="1" arrows="1" fold="1" page="1" pageScale="1" pageWidth="850" pageHeight="1100" math="0" shadow="0">
      <root>
        <mxCell id="0" />
        <mxCell id="1" parent="0" />
        <mxCell id="yq8BiNeydB3EqMrXoqo3-2" style="edgeStyle=orthogonalEdgeStyle;rounded=0;orthogonalLoop=1;jettySize=auto;html=1;exitX=0.25;exitY=1;exitDx=0;exitDy=0;" edge="1" parent="1" source="yq8BiNeydB3EqMrXoqo3-1">
          <mxGeometry relative="1" as="geometry">
            <mxPoint x="410" y="100" as="targetPoint" />
          </mxGeometry>
        </mxCell>
        <mxCell id="yq8BiNeydB3EqMrXoqo3-1" value="&lt;font style=&quot;font-size: 24px;&quot;&gt;start&lt;/font&gt;" style="rounded=1;whiteSpace=wrap;html=1;" vertex="1" parent="1">
          <mxGeometry x="380" y="40" width="120" height="60" as="geometry" />
        </mxCell>
        <mxCell id="yq8BiNeydB3EqMrXoqo3-3" value="" style="endArrow=classic;html=1;rounded=0;" edge="1" parent="1" target="yq8BiNeydB3EqMrXoqo3-4">
          <mxGeometry width="50" height="50" relative="1" as="geometry">
            <mxPoint x="440" y="100" as="sourcePoint" />
            <mxPoint x="440" y="180" as="targetPoint" />
          </mxGeometry>
        </mxCell>
        <mxCell id="yq8BiNeydB3EqMrXoqo3-5" style="edgeStyle=orthogonalEdgeStyle;rounded=0;orthogonalLoop=1;jettySize=auto;html=1;" edge="1" parent="1" source="yq8BiNeydB3EqMrXoqo3-4">
          <mxGeometry relative="1" as="geometry">
            <mxPoint x="440" y="280" as="targetPoint" />
          </mxGeometry>
        </mxCell>
        <mxCell id="yq8BiNeydB3EqMrXoqo3-4" value="&lt;font style=&quot;font-size: 24px;&quot;&gt;Generate a random word&lt;/font&gt;" style="rounded=1;whiteSpace=wrap;html=1;" vertex="1" parent="1">
          <mxGeometry x="320" y="150" width="240" height="60" as="geometry" />
        </mxCell>
        <mxCell id="yq8BiNeydB3EqMrXoqo3-7" style="edgeStyle=orthogonalEdgeStyle;rounded=0;orthogonalLoop=1;jettySize=auto;html=1;" edge="1" parent="1" source="yq8BiNeydB3EqMrXoqo3-6" target="yq8BiNeydB3EqMrXoqo3-8">
          <mxGeometry relative="1" as="geometry">
            <mxPoint x="440" y="440" as="targetPoint" />
          </mxGeometry>
        </mxCell>
        <mxCell id="yq8BiNeydB3EqMrXoqo3-6" value="&lt;font style=&quot;font-size: 24px;&quot;&gt;Generate as many blanks as letters in word&lt;/font&gt;" style="rounded=1;whiteSpace=wrap;html=1;" vertex="1" parent="1">
          <mxGeometry x="280" y="280" width="320" height="60" as="geometry" />
        </mxCell>
        <mxCell id="yq8BiNeydB3EqMrXoqo3-9" style="edgeStyle=orthogonalEdgeStyle;rounded=0;orthogonalLoop=1;jettySize=auto;html=1;" edge="1" parent="1" source="yq8BiNeydB3EqMrXoqo3-8" target="yq8BiNeydB3EqMrXoqo3-10">
          <mxGeometry relative="1" as="geometry">
            <mxPoint x="440" y="560" as="targetPoint" />
          </mxGeometry>
        </mxCell>
        <mxCell id="yq8BiNeydB3EqMrXoqo3-8" value="&lt;font style=&quot;font-size: 24px;&quot;&gt;Ask the user to guess a letter&lt;/font&gt;" style="rounded=1;whiteSpace=wrap;html=1;" vertex="1" parent="1">
          <mxGeometry x="280" y="410" width="320" height="60" as="geometry" />
        </mxCell>
        <mxCell id="yq8BiNeydB3EqMrXoqo3-11" style="edgeStyle=orthogonalEdgeStyle;rounded=0;orthogonalLoop=1;jettySize=auto;html=1;" edge="1" parent="1" source="yq8BiNeydB3EqMrXoqo3-10">
          <mxGeometry relative="1" as="geometry">
            <mxPoint x="210" y="710" as="targetPoint" />
            <Array as="points">
              <mxPoint x="210" y="625" />
            </Array>
          </mxGeometry>
        </mxCell>
        <mxCell id="yq8BiNeydB3EqMrXoqo3-12" style="edgeStyle=orthogonalEdgeStyle;rounded=0;orthogonalLoop=1;jettySize=auto;html=1;" edge="1" parent="1" source="yq8BiNeydB3EqMrXoqo3-10">
          <mxGeometry relative="1" as="geometry">
            <mxPoint x="680" y="710" as="targetPoint" />
            <Array as="points">
              <mxPoint x="680" y="625" />
            </Array>
          </mxGeometry>
        </mxCell>
        <mxCell id="yq8BiNeydB3EqMrXoqo3-10" value="&lt;font style=&quot;font-size: 24px;&quot;&gt;is the guessed letter in the word?&lt;/font&gt;" style="rhombus;whiteSpace=wrap;html=1;" vertex="1" parent="1">
          <mxGeometry x="230" y="550" width="420" height="150" as="geometry" />
        </mxCell>
        <mxCell id="yq8BiNeydB3EqMrXoqo3-18" style="edgeStyle=orthogonalEdgeStyle;rounded=0;orthogonalLoop=1;jettySize=auto;html=1;" edge="1" parent="1" source="yq8BiNeydB3EqMrXoqo3-13" target="yq8BiNeydB3EqMrXoqo3-19">
          <mxGeometry relative="1" as="geometry">
            <mxPoint x="680" y="830" as="targetPoint" />
          </mxGeometry>
        </mxCell>
        <mxCell id="yq8BiNeydB3EqMrXoqo3-13" value="&lt;font style=&quot;font-size: 18px;&quot;&gt;Lose a life&lt;/font&gt;" style="rounded=1;whiteSpace=wrap;html=1;" vertex="1" parent="1">
          <mxGeometry x="620" y="710" width="120" height="40" as="geometry" />
        </mxCell>
        <mxCell id="yq8BiNeydB3EqMrXoqo3-27" style="edgeStyle=orthogonalEdgeStyle;rounded=0;orthogonalLoop=1;jettySize=auto;html=1;entryX=0.5;entryY=0;entryDx=0;entryDy=0;" edge="1" parent="1" source="yq8BiNeydB3EqMrXoqo3-14" target="yq8BiNeydB3EqMrXoqo3-25">
          <mxGeometry relative="1" as="geometry">
            <mxPoint x="215" y="800" as="targetPoint" />
            <Array as="points">
              <mxPoint x="210" y="770" />
              <mxPoint x="210" y="770" />
            </Array>
          </mxGeometry>
        </mxCell>
        <mxCell id="yq8BiNeydB3EqMrXoqo3-14" value="&lt;font style=&quot;font-size: 18px;&quot;&gt;Replace the blank with the letter&lt;/font&gt;" style="rounded=1;whiteSpace=wrap;html=1;" vertex="1" parent="1">
          <mxGeometry x="115" y="710" width="190" height="50" as="geometry" />
        </mxCell>
        <mxCell id="yq8BiNeydB3EqMrXoqo3-15" value="&lt;font style=&quot;font-size: 18px;&quot;&gt;Yes&lt;/font&gt;" style="text;html=1;align=center;verticalAlign=middle;whiteSpace=wrap;rounded=0;" vertex="1" parent="1">
          <mxGeometry x="150" y="650" width="60" height="30" as="geometry" />
        </mxCell>
        <mxCell id="yq8BiNeydB3EqMrXoqo3-16" value="&lt;font style=&quot;font-size: 18px;&quot;&gt;No&lt;/font&gt;" style="text;html=1;align=center;verticalAlign=middle;whiteSpace=wrap;rounded=0;" vertex="1" parent="1">
          <mxGeometry x="680" y="650" width="60" height="30" as="geometry" />
        </mxCell>
        <mxCell id="yq8BiNeydB3EqMrXoqo3-29" style="edgeStyle=orthogonalEdgeStyle;rounded=0;orthogonalLoop=1;jettySize=auto;html=1;entryX=1;entryY=0.5;entryDx=0;entryDy=0;" edge="1" parent="1" source="yq8BiNeydB3EqMrXoqo3-19" target="yq8BiNeydB3EqMrXoqo3-6">
          <mxGeometry relative="1" as="geometry">
            <Array as="points">
              <mxPoint x="850" y="830" />
              <mxPoint x="850" y="310" />
            </Array>
          </mxGeometry>
        </mxCell>
        <mxCell id="yq8BiNeydB3EqMrXoqo3-33" style="edgeStyle=orthogonalEdgeStyle;rounded=0;orthogonalLoop=1;jettySize=auto;html=1;" edge="1" parent="1" source="yq8BiNeydB3EqMrXoqo3-19">
          <mxGeometry relative="1" as="geometry">
            <mxPoint x="440" y="1040" as="targetPoint" />
            <Array as="points">
              <mxPoint x="680" y="960" />
              <mxPoint x="440" y="960" />
            </Array>
          </mxGeometry>
        </mxCell>
        <mxCell id="yq8BiNeydB3EqMrXoqo3-19" value="&lt;font style=&quot;font-size: 18px;&quot;&gt;Have they run out of lives?&lt;/font&gt;" style="rhombus;whiteSpace=wrap;html=1;" vertex="1" parent="1">
          <mxGeometry x="550" y="790" width="260" height="80" as="geometry" />
        </mxCell>
        <mxCell id="yq8BiNeydB3EqMrXoqo3-21" value="&lt;font style=&quot;font-size: 18px;&quot;&gt;No&lt;/font&gt;" style="text;html=1;align=center;verticalAlign=middle;whiteSpace=wrap;rounded=0;" vertex="1" parent="1">
          <mxGeometry x="800" y="840" width="60" height="30" as="geometry" />
        </mxCell>
        <mxCell id="yq8BiNeydB3EqMrXoqo3-28" style="edgeStyle=orthogonalEdgeStyle;rounded=0;orthogonalLoop=1;jettySize=auto;html=1;entryX=0;entryY=0.5;entryDx=0;entryDy=0;" edge="1" parent="1" source="yq8BiNeydB3EqMrXoqo3-25" target="yq8BiNeydB3EqMrXoqo3-6">
          <mxGeometry relative="1" as="geometry">
            <mxPoint x="40" y="320" as="targetPoint" />
            <Array as="points">
              <mxPoint x="40" y="830" />
              <mxPoint x="40" y="310" />
            </Array>
          </mxGeometry>
        </mxCell>
        <mxCell id="yq8BiNeydB3EqMrXoqo3-31" style="edgeStyle=orthogonalEdgeStyle;rounded=0;orthogonalLoop=1;jettySize=auto;html=1;" edge="1" parent="1" source="yq8BiNeydB3EqMrXoqo3-25">
          <mxGeometry relative="1" as="geometry">
            <mxPoint x="440" y="1040" as="targetPoint" />
            <Array as="points">
              <mxPoint x="210" y="960" />
              <mxPoint x="440" y="960" />
            </Array>
          </mxGeometry>
        </mxCell>
        <mxCell id="yq8BiNeydB3EqMrXoqo3-25" value="&lt;font style=&quot;font-size: 18px;&quot;&gt;Are all the blanks filled?&lt;/font&gt;" style="rhombus;whiteSpace=wrap;html=1;" vertex="1" parent="1">
          <mxGeometry x="80" y="790" width="260" height="80" as="geometry" />
        </mxCell>
        <mxCell id="yq8BiNeydB3EqMrXoqo3-30" value="&lt;font style=&quot;font-size: 18px;&quot;&gt;No&lt;/font&gt;" style="text;html=1;align=center;verticalAlign=middle;whiteSpace=wrap;rounded=0;" vertex="1" parent="1">
          <mxGeometry x="40" y="840" width="60" height="30" as="geometry" />
        </mxCell>
        <mxCell id="yq8BiNeydB3EqMrXoqo3-34" value="&lt;font style=&quot;font-size: 18px;&quot;&gt;Yes&lt;/font&gt;" style="text;html=1;align=center;verticalAlign=middle;whiteSpace=wrap;rounded=0;" vertex="1" parent="1">
          <mxGeometry x="210" y="890" width="60" height="30" as="geometry" />
        </mxCell>
        <mxCell id="yq8BiNeydB3EqMrXoqo3-36" value="&lt;font style=&quot;font-size: 18px;&quot;&gt;Yes&lt;/font&gt;" style="text;html=1;align=center;verticalAlign=middle;whiteSpace=wrap;rounded=0;" vertex="1" parent="1">
          <mxGeometry x="620" y="890" width="60" height="30" as="geometry" />
        </mxCell>
        <mxCell id="yq8BiNeydB3EqMrXoqo3-37" value="&lt;span style=&quot;font-size: 18px;&quot;&gt;Game over&lt;/span&gt;" style="rounded=1;whiteSpace=wrap;html=1;" vertex="1" parent="1">
          <mxGeometry x="380" y="1040" width="120" height="40" as="geometry" />
        </mxCell>
      </root>
    </mxGraphModel>
  </diagram>
</mxfile>
